<svg xmlns="http://www.w3.org/2000/svg" xmlns:xlink="http://www.w3.org/1999/xlink" xmlns:serif="http://www.serif.com/" width="100%" height="100%" viewBox="0 0 123 47" xml:space="preserve" style="fill-rule:evenodd;clip-rule:evenodd;stroke-linejoin:round;stroke-miterlimit:2;">
    <g transform="matrix(1,0,0,1,0,-9)">
        <path d="M33.3,9.38L33.3,39.276C33.3,41.545 32.856,43.691 31.968,45.714C31.129,47.737 29.945,49.513 28.416,51.042C26.936,52.571 25.185,53.78 23.162,54.668C21.139,55.507 18.993,55.926 16.724,55.926C14.455,55.926 12.309,55.507 10.286,54.668C8.263,53.78 6.487,52.571 4.958,51.042C3.429,49.513 2.22,47.737 1.332,45.714C0.493,43.691 0.074,41.545 0.074,39.276C0.074,36.957 0.493,34.811 1.332,32.838C2.22,30.815 3.429,29.064 4.958,27.584C6.487,26.055 8.263,24.871 10.286,24.032C12.309,23.144 14.455,22.7 16.724,22.7L26.714,22.7L26.714,9.38L33.3,9.38ZM16.724,49.34C18.105,49.34 19.388,49.093 20.572,48.6C21.805,48.057 22.866,47.342 23.754,46.454C24.691,45.517 25.407,44.431 25.9,43.198C26.443,41.965 26.714,40.657 26.714,39.276L26.714,29.286L16.724,29.286C15.343,29.286 14.035,29.557 12.802,30.1C11.569,30.593 10.483,31.309 9.546,32.246C8.658,33.134 7.943,34.195 7.4,35.428C6.907,36.612 6.66,37.895 6.66,39.276C6.66,40.657 6.907,41.965 7.4,43.198C7.943,44.431 8.658,45.517 9.546,46.454C10.483,47.342 11.569,48.057 12.802,48.6C14.035,49.093 15.343,49.34 16.724,49.34ZM61.675,44.234L66.337,48.896L64.043,51.19C62.464,52.769 60.664,53.977 58.641,54.816C56.618,55.655 54.497,56.074 52.277,56.074C50.057,56.074 47.936,55.655 45.913,54.816C43.89,53.977 42.09,52.769 40.511,51.19C38.883,49.562 37.674,47.737 36.885,45.714C36.096,43.642 35.701,41.545 35.701,39.424C35.701,37.303 36.096,35.231 36.885,33.208C37.674,31.185 38.883,29.36 40.511,27.732C42.139,26.104 43.964,24.895 45.987,24.106C48.059,23.267 50.156,22.848 52.277,22.848C54.398,22.848 56.47,23.267 58.493,24.106C60.565,24.895 62.415,26.104 64.043,27.732L66.337,30.026L47.911,48.452C49.786,49.389 51.759,49.71 53.831,49.414C55.952,49.069 57.802,48.107 59.381,46.528L61.675,44.234ZM45.173,32.32C43.2,34.293 42.213,36.661 42.213,39.424C42.213,40.953 42.558,42.409 43.249,43.79L49.761,37.278C51.142,35.897 52.45,34.589 53.683,33.356C54.966,32.123 55.952,31.161 56.643,30.47C54.768,29.533 52.77,29.212 50.649,29.508C48.577,29.804 46.752,30.741 45.173,32.32ZM68.654,9.38L75.24,9.38L75.24,55.926L68.654,55.926L68.654,9.38ZM77.76,9.38L84.346,9.38L84.346,55.926L77.76,55.926L77.76,9.38ZM86.791,39.424C86.791,37.105 87.21,34.959 88.049,32.986C88.937,30.963 90.121,29.212 91.601,27.732C93.13,26.203 94.906,25.019 96.929,24.18C98.952,23.292 101.098,22.848 103.367,22.848C105.686,22.848 107.832,23.292 109.805,24.18C111.828,25.019 113.604,26.203 115.133,27.732C116.662,29.212 117.846,30.963 118.685,32.986C119.573,34.959 120.017,37.105 120.017,39.424C120.017,41.693 119.573,43.839 118.685,45.862C117.846,47.885 116.662,49.661 115.133,51.19C113.604,52.719 111.828,53.928 109.805,54.816C107.832,55.655 105.686,56.074 103.367,56.074C101.098,56.074 98.952,55.655 96.929,54.816C94.906,53.928 93.13,52.719 91.601,51.19C90.121,49.661 88.937,47.885 88.049,45.862C87.21,43.839 86.791,41.693 86.791,39.424ZM93.303,39.424C93.303,40.805 93.55,42.113 94.043,43.346C94.586,44.579 95.301,45.665 96.189,46.602C97.126,47.49 98.212,48.205 99.445,48.748C100.678,49.241 101.986,49.488 103.367,49.488C104.748,49.488 106.056,49.241 107.289,48.748C108.522,48.205 109.583,47.49 110.471,46.602C111.408,45.665 112.124,44.579 112.617,43.346C113.16,42.113 113.431,40.805 113.431,39.424C113.431,38.043 113.16,36.76 112.617,35.576C112.124,34.343 111.408,33.282 110.471,32.394C109.583,31.457 108.522,30.741 107.289,30.248C106.056,29.705 104.748,29.434 103.367,29.434C101.986,29.434 100.678,29.705 99.445,30.248C98.212,30.741 97.126,31.457 96.189,32.394C95.301,33.282 94.586,34.343 94.043,35.576C93.55,36.76 93.303,38.043 93.303,39.424Z" style="fill:rgb(39,39,39);fill-rule:nonzero;"></path>
    </g>
</svg>